<svg width="32" height="32" viewBox="0 0 32 32" fill="none" xmlns="http://www.w3.org/2000/svg">
<rect x="0.5" y="0.5" width="31" height="31" rx="7.5" fill="white" stroke="#F2F2F2"/>
<path d="M16.3928 12.1428C16.3264 12.2216 16.26 12.3016 16.178 12.3969L15.9524 12.6608L15.718 12.4056C15.6486 12.3301 15.5783 12.2523 15.51 12.1767C14.7853 11.3772 14.2394 10.7748 13.1154 10.7584C13.0714 10.7573 13.0245 10.7584 12.9757 10.7606C12.3468 10.7858 11.7667 11.0453 11.3428 11.4889C10.9248 11.927 10.6582 12.548 10.6494 13.3037C10.6485 13.3508 10.6494 13.4001 10.6514 13.4538C10.7188 15.5643 12.5196 17.4054 14.0128 18.9311C14.3009 19.2257 14.5773 19.5083 14.842 19.7942L15.9416 20.9825L17.3235 19.4448C17.5462 19.1973 17.7981 18.9267 18.0677 18.6376C18.5257 18.1447 19.0355 17.5982 19.5101 17.0473C19.851 16.6519 20.1742 16.2543 20.4486 15.8721C20.7182 15.4975 20.9389 15.1416 21.0805 14.8239C21.3129 14.3026 21.3862 13.7813 21.3364 13.2939C21.2875 12.8131 21.1186 12.364 20.8656 11.9807C20.6088 11.5919 20.267 11.2699 19.8754 11.0497C19.4242 10.7978 18.9076 10.6784 18.3792 10.7463C17.4681 10.8646 16.9827 11.4418 16.3928 12.1428ZM15.9348 11.6258C16.6086 10.8252 17.1682 10.1691 18.305 10.0235C18.9613 9.93914 19.6039 10.0859 20.1635 10.4013C20.6469 10.673 21.0688 11.0694 21.3852 11.5481C21.7045 12.0322 21.9184 12.6006 21.9809 13.2117C22.0444 13.8316 21.9526 14.4921 21.6586 15.1492C21.4926 15.5205 21.2465 15.9192 20.9526 16.3277C20.6645 16.7286 20.3285 17.1426 19.976 17.5511C19.4925 18.113 18.9789 18.665 18.5159 19.1622C18.2454 19.4525 17.9925 19.7241 17.7796 19.9607L16.1721 21.7492L15.9465 22L15.718 21.7536L14.3898 20.3188C14.1466 20.057 13.8654 19.769 13.5734 19.47C11.9903 17.8501 10.0791 15.8973 10.002 13.479C10 13.4198 10 13.3585 10 13.295C10.0117 12.3246 10.3574 11.5229 10.8994 10.9555C11.4366 10.3937 12.1661 10.0651 12.9513 10.0333C13.005 10.0311 13.0616 10.03 13.1212 10.0311C14.4924 10.052 15.1193 10.7255 15.9348 11.6258Z" fill="#D3D3D3"/>
</svg>
